<svg width="127" height="25" viewBox="0 0 127 25" fill="none" xmlns="http://www.w3.org/2000/svg">
<path d="M8.90095 6.98934C6.48156 6.98934 4.54008 8.15423 3.10637 9.67754V0H0V22.4017H3.10637V14.5163C3.25572 12.2761 4.74916 9.94637 7.70619 9.94637C9.88663 9.94637 11.3502 11.2606 11.3502 14.9046V22.4017H14.4566V13.5306C14.4566 9.31912 12.4554 6.98934 8.90095 6.98934Z" fill="currentcolor"/>
<path d="M17.4862 14.8449C17.4862 19.1759 20.7419 22.7004 25.0729 22.7004C27.791 22.7004 29.9415 21.207 30.8077 19.2655L30.9869 22.4017H33.944V7.28803H30.9869L30.8077 10.3944C29.9415 8.48279 27.791 6.98934 25.0729 6.98934C20.7419 6.98934 17.4862 10.5139 17.4862 14.8449ZM20.5925 14.8449C20.5925 12.1567 22.7132 9.94637 25.5807 9.94637C28.3883 9.94637 30.4792 12.1567 30.4792 14.8449C30.4792 17.5331 28.3883 19.7434 25.5807 19.7434C22.7132 19.7434 20.5925 17.5331 20.5925 14.8449Z" fill="currentcolor"/>
<path d="M46.8777 6.98934C44.4284 6.98934 42.487 8.1841 41.0533 9.70741L40.9039 7.28803H37.9767V22.4017H41.0831V14.5163C41.2325 12.2761 42.7259 9.94637 45.6829 9.94637C47.8634 9.94637 49.327 11.2606 49.327 14.9046V22.4017H52.4333V13.5306C52.4333 9.31912 50.4321 6.98934 46.8777 6.98934Z" fill="currentcolor"/>
<path d="M64.0442 7.28803H60.8183V2.80768H57.6821V7.28803H55.4419V10.2451H57.6821V22.4017H60.8183V10.2451H64.0442V7.28803Z" fill="currentcolor"/>
<path d="M81.1498 15.0241C81.1498 10.723 78.2525 6.98934 73.5929 6.98934C69.0528 6.98934 66.0361 10.5437 66.0361 14.7553C66.0361 19.2655 69.2321 22.7004 73.8319 22.7004C77.894 22.7004 80.2537 19.9525 80.7615 17.8616L78.0434 17.563C77.4161 18.7278 76.0422 19.9226 73.8617 19.9226C70.9645 19.9226 69.232 18.1305 69.1424 15.8007H81.1498V15.0241ZM73.5929 9.76715C76.2214 9.76715 77.894 11.5892 78.0135 13.6202H69.1424C69.2619 11.4996 71.0541 9.76715 73.5929 9.76715Z" fill="currentcolor"/>
<path d="M90.9372 6.98934C89.623 6.98934 88.488 7.82567 87.5322 9.05029L87.3828 7.28803H84.4557V22.4017H87.562V15.263C87.562 12.2463 88.6074 9.94637 90.758 9.94637C91.4151 9.94637 92.0125 10.1853 92.3112 10.3645L92.7891 7.64646C92.4605 7.34777 91.8333 6.98934 90.9372 6.98934Z" fill="currentcolor"/>
<path d="M94.2121 14.8449C94.2121 19.1759 97.4678 22.7004 101.799 22.7004C104.517 22.7004 106.667 21.207 107.534 19.2655L107.713 22.4017H110.67V7.28803H107.713L107.534 10.3944C106.667 8.48279 104.517 6.98934 101.799 6.98934C97.4678 6.98934 94.2121 10.5139 94.2121 14.8449ZM97.3184 14.8449C97.3184 12.1567 99.4391 9.94637 102.307 9.94637C105.114 9.94637 107.205 12.1567 107.205 14.8449C107.205 17.5331 105.114 19.7434 102.307 19.7434C99.4391 19.7434 97.3184 17.5331 97.3184 14.8449Z" fill="currentcolor"/>
<path d="M114.049 22.4108H126.001V24.5516H114.049V22.4108Z" fill="currentcolor"/>
</svg>
