<svg class="u-svg" fill="none" viewBox="0 0 330 55" width="100%" xmlns="http://www.w3.org/2000/svg"><path d="M94.9731 37.1443C94.9143 38.6045 93.6875 39.7419 92.2337 39.6829C90.8599 39.6272 89.7589 38.5226 89.705 37.1443V13.954H68.4483V39.9992C68.4483 49.8456 73.8078 54.9246 82.6761 54.9246C88.6531 54.9246 93.1076 52.8235 95.5693 49.572V53.6511H116.243V13.954H94.9894V37.1443H94.9747H94.9731Z" fill="currentColor"></path><path d="M139.118 26.1047C139.118 24.8313 140.018 24.2774 141.565 24.2774C143.112 24.2774 144.344 25.3082 144.344 27.3765H162.817C162.817 21.3421 159.222 12.6101 140.685 12.6101C127.62 12.6101 119.369 17.689 119.369 25.7081C119.369 42.3838 143.398 36.1085 143.398 41.43C143.398 42.6198 142.416 43.2573 140.873 43.2573C139.079 43.2573 137.926 41.9839 137.926 40.0812H118.958C119.206 50.0866 127.944 54.9295 141.007 54.9295C152.358 54.9295 164.039 52.3909 164.039 41.3546C164.039 25.9523 139.11 31.4311 139.11 26.1113L139.117 26.1064L139.118 26.1047Z" fill="currentColor"></path><path d="M52.3649 28.568L66.0944 13.2411L49.106 0.377441L34.2085 18.3266V2.52275H12.4438V18.0086H0.38855V37.1476H12.4438V53.6643H34.2085V38.0194C39.733 42.469 42.8269 47.6299 43.9997 53.6643H67.6855C65.8461 43.9801 60.8231 35.6398 52.3698 28.5745L52.3632 28.568H52.3649Z" fill="currentColor"></path><path d="M191.753 4.34851H170.405V13.959H164.291V27.3765H170.405V38.0949C170.405 48.5772 176.517 53.6578 188.903 53.6578H200.04V37.618H193.844C192.749 37.6786 191.813 36.8378 191.753 35.7398C191.75 35.6792 191.75 35.6169 191.751 35.5562V27.3782H200.04V13.9606H191.746V4.35015H191.753V4.34851Z" fill="currentColor"></path><path d="M227.659 37.4966C225.643 37.5163 223.993 35.8921 223.974 33.8697C223.974 33.8206 223.974 33.7714 223.974 33.7239C223.97 31.7048 225.599 30.0659 227.612 30.0626C229.624 30.0593 231.257 31.6949 231.259 33.714V33.7239C231.302 35.7643 229.689 37.4523 227.657 37.4982M227.576 12.6035C212.841 12.6035 202.552 21.1765 202.552 33.6436C202.552 46.1106 212.427 54.9213 227.494 54.9213C242.561 54.9213 252.606 46.3482 252.606 33.6436C252.606 20.9389 242.48 12.6035 227.582 12.6035H227.576Z" fill="currentColor"></path><path d="M314.54 12.6036C309.695 12.6036 304.443 13.8377 301.565 18.5347C299.208 14.6522 295.242 12.6036 290.353 12.6036C284.443 12.6036 279.875 14.5063 276.876 19.1591V13.9524H256.119V53.6561H277.213V31.7425C277.321 30.2823 278.587 29.1858 280.042 29.294C281.347 29.3907 282.386 30.433 282.482 31.7425V53.6561H303.409V31.7425C303.51 30.2823 304.772 29.1809 306.227 29.2809C307.542 29.3727 308.587 30.4232 308.679 31.7425V53.6561H329.854V27.3765C329.854 18.5609 323.658 12.6101 314.538 12.6101V12.6019L314.54 12.6036Z" fill="currentColor"></path></svg>